<svg xmlns="http://www.w3.org/2000/svg"
    xmlns:xlink="http://www.w3.org/1999/xlink">
    <defs>
        <symbol viewBox="0 0 20 20" id="linkedin">
            <path fill="currentColor" d="M10 .4C4.698.4.4 4.698.4 10s4.298 9.6 9.6 9.6s9.6-4.298 9.6-9.6S15.302.4 10 .4M7.65 13.979H5.706V7.723H7.65zm-.984-7.024c-.614 0-1.011-.435-1.011-.973c0-.549.409-.971 1.036-.971s1.011.422 1.023.971c0 .538-.396.973-1.048.973m8.084 7.024h-1.944v-3.467c0-.807-.282-1.355-.985-1.355c-.537 0-.856.371-.997.728c-.052.127-.065.307-.065.486v3.607H8.814v-4.26c0-.781-.025-1.434-.051-1.996h1.689l.089.869h.039c.256-.408.883-1.01 1.932-1.01c1.279 0 2.238.857 2.238 2.699z"></path>
        </symbol>
        <symbol viewBox="0 0 24 24" id="twitter">
            <g fill="none" stroke="currentColor" stroke-linecap="round" stroke-linejoin="round" stroke-width="1.5" color="currentColor">
                <path d="m7 17l4.194-4.193M17 7l-4.193 4.194m0 0L9.777 7H7l4.194 5.807m1.612-1.614L17 17h-2.778l-3.028-4.193"></path>
                <path d="M22 12c0 5.523-4.477 10-10 10S2 17.523 2 12S6.477 2 12 2s10 4.477 10 10"></path>
            </g>
        </symbol>
        <symbol viewBox="0 0 24 24" id="email">
            <path fill="currentColor" d="M12.72 2.03A9.99 9.99 0 0 0 2.03 12.72C2.39 18.01 7.01 22 12.31 22H16c.55 0 1-.45 1-1s-.45-1-1-1h-3.67c-3.73 0-7.15-2.42-8.08-6.03c-1.49-5.8 3.91-11.21 9.71-9.71C17.58 5.18 20 8.6 20 12.33v1.1c0 .79-.71 1.57-1.5 1.57s-1.5-.78-1.5-1.57v-1.25c0-2.51-1.78-4.77-4.26-5.12a5.008 5.008 0 0 0-5.66 5.87a5 5 0 0 0 3.72 3.94c1.84.43 3.59-.16 4.74-1.33c.89 1.22 2.67 1.86 4.3 1.21c1.34-.53 2.16-1.9 2.16-3.34v-1.09c0-5.31-3.99-9.93-9.28-10.29M12 15c-1.66 0-3-1.34-3-3s1.34-3 3-3s3 1.34 3 3s-1.34 3-3 3"></path>
        </symbol>
        <symbol viewBox="0 0 24 24" id="site">
            <path fill="currentColor" d="M17 17h-2.025q-.425 0-.7-.288T14 16t.288-.712T15 15h2v-2q0-.425.288-.712T18 12t.713.288T19 13v2h2q.425 0 .713.288T22 16t-.288.713T21 17h-2v2q0 .425-.288.713T18 20t-.712-.288T17 19zm-7 0H7q-2.075 0-3.537-1.463T2 12t1.463-3.537T7 7h3q.425 0 .713.288T11 8t-.288.713T10 9H7q-1.25 0-2.125.875T4 12t.875 2.125T7 15h3q.425 0 .713.288T11 16t-.288.713T10 17m-1-4q-.425 0-.712-.288T8 12t.288-.712T9 11h6q.425 0 .713.288T16 12t-.288.713T15 13zm13-1h-2q0-1.25-.875-2.125T17 9h-3.025q-.425 0-.7-.288T13 8t.288-.712T14 7h3q2.075 0 3.538 1.463T22 12"></path>
        </symbol>
        <symbol viewBox="0 0 24 24" id="codepen">
            <path fill="currentColor" d="m8.21 12l-1.33.89v-1.78zm3.26-2.18V7.34l-4.16 2.78l1.85 1.24zm5.23.3l-4.17-2.78v2.48l2.31 1.54zm-9.39 3.76l4.16 2.78v-2.48l-2.31-1.54zm5.22.3v2.48l4.17-2.78l-1.86-1.24zM12 10.74L10.12 12L12 13.26L13.88 12zM22 12c0 5.5-4.5 10-10 10S2 17.5 2 12S6.5 2 12 2s10 4.5 10 10m-3.82-1.88v-.07l-.01-.05l-.01-.05c-.01-.01-.01-.02-.02-.04l-.01-.02l-.02-.04l-.01-.02l-.02-.03l-.02-.03l-.03-.03l-.03-.02V9.7l-.04-.02l-.01-.01l-5.65-3.76a.53.53 0 0 0-.59 0L6.05 9.67v.01L6 9.7v.02l-.03.02l-.03.03l-.01.03l-.03.03l-.01.02l-.02.04l-.01.02l-.02.04V10h-.01l-.01.05v3.9l.01.05h.01v.05c.01.01.01.02.02.04l.01.02l.02.04l.01.02l.02.03l.02.03l.03.03l.03.02v.02l.04.02l.01.01l5.66 3.77c.08.06.19.08.29.08s.21-.03.3-.08l5.65-3.77l.01-.01l.04-.02v-.02l.03-.02l.03-.03l.02-.03l.02-.03l.01-.02l.02-.04l.01-.02l.02-.04V14h.01l.01-.05zm-1.06 2.77v-1.78l-1.33.89z"></path>
        </symbol>
        <symbol viewBox="0 0 24 24" id="github">
            <path fill="currentColor" d="M12 2A10 10 0 0 0 2 12c0 4.42 2.87 8.17 6.84 9.5c.5.08.66-.23.66-.5v-1.69c-2.77.6-3.36-1.34-3.36-1.34c-.46-1.16-1.11-1.47-1.11-1.47c-.91-.62.07-.6.07-.6c1 .07 1.53 1.03 1.53 1.03c.87 1.52 2.34 1.07 2.91.83c.09-.65.35-1.09.63-1.34c-2.22-.25-4.55-1.11-4.55-4.92c0-1.11.38-2 1.03-2.71c-.1-.25-.45-1.29.1-2.64c0 0 .84-.27 2.75 1.02c.79-.22 1.65-.33 2.5-.33s1.71.11 2.5.33c1.91-1.29 2.75-1.02 2.75-1.02c.55 1.35.2 2.39.1 2.64c.65.71 1.03 1.6 1.03 2.71c0 3.82-2.34 4.66-4.57 4.91c.36.31.69.92.69 1.85V21c0 .27.16.59.67.5C19.14 20.16 22 16.42 22 12A10 10 0 0 0 12 2"></path>
        </symbol>

    </defs>
</svg>