<svg xmlns="http://www.w3.org/2000/svg"
    xmlnsXlink="http://www.w3.org/1999/xlink">
    <defs>
        <symbol viewBox="0 0 24 24" id="email">
            <path fill="currentColor" d="M12.72 2.03A9.99 9.99 0 0 0 2.03 12.72C2.39 18.01 7.01 22 12.31 22H16c.55 0 1-.45 1-1s-.45-1-1-1h-3.67c-3.73 0-7.15-2.42-8.08-6.03c-1.49-5.8 3.91-11.21 9.71-9.71C17.58 5.18 20 8.6 20 12.33v1.1c0 .79-.71 1.57-1.5 1.57s-1.5-.78-1.5-1.57v-1.25c0-2.51-1.78-4.77-4.26-5.12a5.008 5.008 0 0 0-5.66 5.87a5 5 0 0 0 3.72 3.94c1.84.43 3.59-.16 4.74-1.33c.89 1.22 2.67 1.86 4.3 1.21c1.34-.53 2.16-1.9 2.16-3.34v-1.09c0-5.31-3.99-9.93-9.28-10.29M12 15c-1.66 0-3-1.34-3-3s1.34-3 3-3s3 1.34 3 3s-1.34 3-3 3"></path>
        </symbol>
        <symbol viewBox="0 0 24 24" id="github">
            <mask id="lineMdGithubLoop0" width="24" height="24" x="0" y="0">
                <g fill="#fff">
                    <ellipse cx="9.5" cy="9" rx="1.5" ry="1"></ellipse>
                    <ellipse cx="14.5" cy="9" rx="1.5" ry="1"></ellipse>
                </g>
            </mask>
            <g fill="none" stroke="currentColor" stroke-linecap="round" stroke-linejoin="round" stroke-width="2">
                <path stroke-dasharray="32" stroke-dashoffset="32" d="M12 4c1.67 0 2.61 0.4 3 0.5c0.53 -0.43 1.94 -1.5 3.5 -1.5c0.34 1 0.29 2.22 0 3c0.75 1 1 2 1 3.5c0 2.19 -0.48 3.58 -1.5 4.5c-1.02 0.92 -2.11 1.37 -3.5 1.5c0.65 0.54 0.5 1.87 0.5 2.5c0 0.73 0 3 0 3M12 4c-1.67 0 -2.61 0.4 -3 0.5c-0.53 -0.43 -1.94 -1.5 -3.5 -1.5c-0.34 1 -0.29 2.22 0 3c-0.75 1 -1 2 -1 3.5c0 2.19 0.48 3.58 1.5 4.5c1.02 0.92 2.11 1.37 3.5 1.5c-0.65 0.54 -0.5 1.87 -0.5 2.5c0 0.73 0 3 0 3">
                    <animate fill="freeze" attributeName="stroke-dashoffset" dur="0.7s" values="32;0"></animate>
                </path>
                <path stroke-dasharray="10" stroke-dashoffset="10" d="M9 19c-1.406 0-2.844-.563-3.688-1.188C4.47 17.188 4.22 16.157 3 15.5">
                    <animate attributeName="d" dur="3s" repeatCount="indefinite" values="M9 19c-1.406 0-2.844-.563-3.688-1.188C4.47 17.188 4.22 16.157 3 15.5;M9 19c-1.406 0-3-.5-4-.5-.532 0-1 0-2-.5;M9 19c-1.406 0-2.844-.563-3.688-1.188C4.47 17.188 4.22 16.157 3 15.5"></animate>
                    <animate fill="freeze" attributeName="stroke-dashoffset" begin="0.8s" dur="0.2s" values="10;0"></animate>
                </path>
            </g>
            <rect width="8" height="4" x="8" y="11" fill="currentColor" mask="url(#lineMdGithubLoop0)">
                <animate attributeName="y" dur="10s" keyTimes="0;0.45;0.46;0.54;0.55;1" repeatCount="indefinite" values="11;11;7;7;11;11"></animate>
            </rect>
        </symbol>
        <symbol viewBox="0 0 24 24" id="linkedin">
            <circle cx="4" cy="4" r="2" fill="currentColor" fill-opacity="0">
                <animate fill="freeze" attributeName="fill-opacity" dur="0.15s" values="0;1"></animate>
            </circle>
            <g fill="none" stroke="currentColor" stroke-linecap="round" stroke-linejoin="round" stroke-width="4">
                <path stroke-dasharray="12" stroke-dashoffset="12" d="M4 10v10">
                    <animate fill="freeze" attributeName="stroke-dashoffset" begin="0.15s" dur="0.2s" values="12;0"></animate>
                </path>
                <path stroke-dasharray="12" stroke-dashoffset="12" d="M10 10v10">
                    <animate fill="freeze" attributeName="stroke-dashoffset" begin="0.45s" dur="0.2s" values="12;0"></animate>
                </path>
                <path stroke-dasharray="24" stroke-dashoffset="24" d="M10 15c0 -2.76 2.24 -5 5 -5c2.76 0 5 2.24 5 5v5">
                    <animate fill="freeze" attributeName="stroke-dashoffset" begin="0.65s" dur="0.2s" values="24;0"></animate>
                </path>
            </g>
        </symbol>
        <symbol viewBox="0 0 24 24" id="twitter">
            <g fill="currentColor">
                <path d="M1 2h2.5L3.5 2h-2.5zM5.5 2h2.5L7.2 2h-2.5z">
                    <animate fill="freeze" attributeName="d" dur="0.4s" values="M1 2h2.5L3.5 2h-2.5zM5.5 2h2.5L7.2 2h-2.5z;M1 2h2.5L18.5 22h-2.5zM5.5 2h2.5L23 22h-2.5z"></animate>
                </path>
                <path d="M3 2h5v0h-5zM16 22h5v0h-5z">
                    <animate fill="freeze" attributeName="d" begin="0.4s" dur="0.4s" values="M3 2h5v0h-5zM16 22h5v0h-5z;M3 2h5v2h-5zM16 22h5v-2h-5z"></animate>
                </path>
                <path d="M18.5 2h3.5L22 2h-3.5z">
                    <animate fill="freeze" attributeName="d" begin="0.5s" dur="0.4s" values="M18.5 2h3.5L22 2h-3.5z;M18.5 2h3.5L5 22h-3.5z"></animate>
                </path>
            </g>
        </symbol>
        <symbol viewBox="0 0 24 24" id="codepen">
            <g fill="none" fill-rule="evenodd">
                <path d="m12.594 23.258l-.012.002l-.071.035l-.02.004l-.014-.004l-.071-.036q-.016-.004-.024.006l-.004.01l-.017.428l.005.02l.01.013l.104.074l.015.004l.012-.004l.104-.074l.012-.016l.004-.017l-.017-.427q-.004-.016-.016-.018m.264-.113l-.014.002l-.184.093l-.01.01l-.003.011l.018.43l.005.012l.008.008l.201.092q.019.005.029-.008l.004-.014l-.034-.614q-.005-.019-.02-.022m-.715.002a.02.02 0 0 0-.027.006l-.006.014l-.034.614q.001.018.017.024l.015-.002l.201-.093l.01-.008l.003-.011l.018-.43l-.003-.012l-.01-.01z"></path>
                <path fill="currentColor" d="m13 3.228l7.998 4.617a2 2 0 0 1 1 1.732v4.846a2 2 0 0 1-1 1.732L13 20.772a2 2 0 0 1-2 0l-7.998-4.617a2 2 0 0 1-1-1.732V9.577a2 2 0 0 1 1-1.732L11 3.228a2 2 0 0 1 2 0m-4.802 9.927L5.002 15L11 18.463v-3.69zm7.604 0L13 14.772v3.69L18.998 15zm-11.8-2.423v2.536L6.198 12zm15.996 0L17.802 12l2.196 1.268zM12 10.96L10.198 12L12 13.04L13.802 12zm-1-5.423L5.002 9l3.196 1.845L11 9.228zm2 0v3.69l2.802 1.618L18.998 9z"></path>
            </g>
        </symbol>

    </defs>
</svg>